<svg xmlns="http://www.w3.org/2000/svg" xmlns:xlink="http://www.w3.org/1999/xlink" width="500" zoomAndPan="magnify" viewBox="0 0 375 374.999991" height="500" preserveAspectRatio="xMidYMid meet" version="1.0"><defs><g/><clipPath id="id1"><path d="M 51 207 L 110.644531 207 L 110.644531 209.207031 L 51 209.207031 Z M 51 207 " clip-rule="nonzero"/></clipPath><clipPath id="id2"><path d="M 47.644531 145 L 99 145 L 99 186 L 47.644531 186 Z M 47.644531 145 " clip-rule="nonzero"/></clipPath><clipPath id="id3"><path d="M 91 139.457031 L 104 139.457031 L 104 153 L 91 153 Z M 91 139.457031 " clip-rule="nonzero"/></clipPath><clipPath id="id4"><path d="M 93.207031 158.144531 L 104.457031 158.144531 L 104.457031 206.894531 L 93.207031 206.894531 Z M 93.207031 158.144531 " clip-rule="nonzero"/></clipPath><clipPath id="id5"><path d="M 115.679688 158.144531 L 126.929688 158.144531 L 126.929688 209.144531 L 115.679688 209.144531 Z M 115.679688 158.144531 " clip-rule="nonzero"/></clipPath><clipPath id="id6"><path d="M 106.992188 179.292969 L 124.242188 179.292969 L 124.242188 186.792969 L 106.992188 186.792969 Z M 106.992188 179.292969 " clip-rule="nonzero"/></clipPath></defs><rect x="-37.5" width="450" fill="#ffffff" y="-37.499999" height="449.999989" fill-opacity="1"/><rect x="-37.5" width="450" fill="#ffffff" y="-37.499999" height="449.999989" fill-opacity="1"/><rect x="-37.5" width="450" fill="#ffffff" y="-37.499999" height="449.999989" fill-opacity="1"/><rect x="-37.5" width="450" fill="#ffffff" y="-37.499999" height="449.999989" fill-opacity="1"/><path fill="#fda83f" d="M 58.125 183.699219 L 69.78125 183.699219 L 69.78125 208.167969 L 58.125 208.167969 Z M 58.125 183.699219 " fill-opacity="1" fill-rule="nonzero"/><path fill="#fda83f" d="M 75.605469 172.503906 L 87.261719 172.503906 L 87.261719 208.167969 L 75.605469 208.167969 Z M 75.605469 172.503906 " fill-opacity="1" fill-rule="nonzero"/><path fill="#fda83f" d="M 93.085938 158.542969 L 104.742188 158.542969 L 104.742188 208.167969 L 93.085938 208.167969 Z M 93.085938 158.542969 " fill-opacity="1" fill-rule="nonzero"/><g clip-path="url(#id1)"><path fill="#042a5d" d="M 109.527344 209.199219 L 52.613281 209.199219 C 52.039062 209.199219 51.574219 208.734375 51.574219 208.167969 C 51.574219 207.597656 52.039062 207.132812 52.613281 207.132812 L 109.527344 207.132812 C 110.101562 207.132812 110.5625 207.597656 110.5625 208.167969 C 110.5625 208.734375 110.101562 209.199219 109.527344 209.199219 Z M 109.527344 209.199219 " fill-opacity="1" fill-rule="nonzero"/></g><g clip-path="url(#id2)"><path fill="#042a5d" d="M 48.867188 185.40625 C 48.632812 185.40625 48.394531 185.328125 48.199219 185.164062 C 47.761719 184.792969 47.707031 184.144531 48.078125 183.707031 L 56.503906 173.773438 C 56.835938 173.378906 57.40625 173.292969 57.84375 173.5625 L 62.355469 176.371094 L 74.8125 161.542969 C 75.136719 161.15625 75.691406 161.0625 76.128906 161.3125 L 81.203125 164.261719 L 96.953125 145.609375 C 97.320312 145.175781 97.972656 145.117188 98.410156 145.484375 C 98.847656 145.851562 98.90625 146.503906 98.535156 146.9375 L 82.226562 166.257812 C 81.902344 166.640625 81.347656 166.734375 80.914062 166.484375 L 75.839844 163.535156 L 63.363281 178.386719 C 63.03125 178.78125 62.457031 178.871094 62.019531 178.597656 L 57.503906 175.785156 L 49.660156 185.039062 C 49.453125 185.28125 49.160156 185.40625 48.867188 185.40625 Z M 48.867188 185.40625 " fill-opacity="1" fill-rule="nonzero"/></g><g clip-path="url(#id3)"><path fill="#042a5d" d="M 103.738281 139.457031 L 99.472656 152.648438 L 97.414062 146.945312 L 91.421875 145.902344 Z M 103.738281 139.457031 " fill-opacity="1" fill-rule="nonzero"/></g><g clip-path="url(#id4)"><path fill="#fda83f" d="M 93.207031 158.164062 L 104.457031 158.164062 L 104.457031 206.878906 L 93.207031 206.878906 L 93.207031 158.164062 " fill-opacity="1" fill-rule="nonzero"/></g><g fill="#042a5d" fill-opacity="1"><g transform="translate(58.637583, 130.415466)"><g><path d="M 4.796875 -4.359375 L 7.625 -4.359375 L 7.625 -0.3125 C 7.1875 -0.175781 6.738281 -0.0703125 6.28125 0 C 5.820312 0.0703125 5.296875 0.109375 4.703125 0.109375 C 3.441406 0.109375 2.457031 -0.257812 1.75 -1 C 1.050781 -1.75 0.703125 -2.800781 0.703125 -4.15625 C 0.703125 -5.019531 0.875 -5.773438 1.21875 -6.421875 C 1.570312 -7.078125 2.070312 -7.570312 2.71875 -7.90625 C 3.375 -8.25 4.140625 -8.421875 5.015625 -8.421875 C 5.898438 -8.421875 6.726562 -8.257812 7.5 -7.9375 L 7.125 -7.09375 C 6.375 -7.40625 5.648438 -7.5625 4.953125 -7.5625 C 3.941406 -7.5625 3.148438 -7.257812 2.578125 -6.65625 C 2.015625 -6.050781 1.734375 -5.21875 1.734375 -4.15625 C 1.734375 -3.03125 2.003906 -2.175781 2.546875 -1.59375 C 3.097656 -1.019531 3.90625 -0.734375 4.96875 -0.734375 C 5.539062 -0.734375 6.101562 -0.800781 6.65625 -0.9375 L 6.65625 -3.484375 L 4.796875 -3.484375 Z M 4.796875 -4.359375 "/></g></g></g><g fill="#042a5d" fill-opacity="1"><g transform="translate(70.260775, 130.415466)"><g><path d="M 5.78125 0 L 1.140625 0 L 1.140625 -8.3125 L 5.78125 -8.3125 L 5.78125 -7.453125 L 2.109375 -7.453125 L 2.109375 -4.78125 L 5.546875 -4.78125 L 5.546875 -3.921875 L 2.109375 -3.921875 L 2.109375 -0.859375 L 5.78125 -0.859375 Z M 5.78125 0 "/></g></g></g><g fill="#042a5d" fill-opacity="1"><g transform="translate(79.884286, 130.415466)"><g><path d="M 5.828125 -2.21875 C 5.828125 -1.476562 5.5625 -0.90625 5.03125 -0.5 C 4.5 -0.09375 3.78125 0.109375 2.875 0.109375 C 1.882812 0.109375 1.128906 -0.015625 0.609375 -0.265625 L 0.609375 -1.203125 C 0.941406 -1.054688 1.304688 -0.941406 1.703125 -0.859375 C 2.109375 -0.773438 2.507812 -0.734375 2.90625 -0.734375 C 3.550781 -0.734375 4.035156 -0.851562 4.359375 -1.09375 C 4.691406 -1.34375 4.859375 -1.6875 4.859375 -2.125 C 4.859375 -2.40625 4.796875 -2.640625 4.671875 -2.828125 C 4.554688 -3.015625 4.363281 -3.179688 4.09375 -3.328125 C 3.820312 -3.484375 3.410156 -3.660156 2.859375 -3.859375 C 2.085938 -4.140625 1.535156 -4.46875 1.203125 -4.84375 C 0.867188 -5.226562 0.703125 -5.722656 0.703125 -6.328125 C 0.703125 -6.972656 0.941406 -7.484375 1.421875 -7.859375 C 1.910156 -8.234375 2.550781 -8.421875 3.34375 -8.421875 C 4.164062 -8.421875 4.925781 -8.269531 5.625 -7.96875 L 5.3125 -7.140625 C 4.632812 -7.421875 3.96875 -7.5625 3.3125 -7.5625 C 2.800781 -7.5625 2.398438 -7.453125 2.109375 -7.234375 C 1.828125 -7.015625 1.6875 -6.710938 1.6875 -6.328125 C 1.6875 -6.035156 1.738281 -5.796875 1.84375 -5.609375 C 1.945312 -5.429688 2.125 -5.265625 2.375 -5.109375 C 2.632812 -4.953125 3.023438 -4.78125 3.546875 -4.59375 C 4.410156 -4.28125 5.003906 -3.945312 5.328125 -3.59375 C 5.660156 -3.238281 5.828125 -2.78125 5.828125 -2.21875 Z M 5.828125 -2.21875 "/></g></g></g><g fill="#042a5d" fill-opacity="1"><g transform="translate(89.422584, 130.415466)"><g><path d="M 3.703125 0 L 2.734375 0 L 2.734375 -7.453125 L 0.109375 -7.453125 L 0.109375 -8.3125 L 6.328125 -8.3125 L 6.328125 -7.453125 L 3.703125 -7.453125 Z M 3.703125 0 "/></g></g></g><g fill="#042a5d" fill-opacity="1"><g transform="translate(99.012008, 130.415466)"><g><path d="M 6.359375 0 L 5.328125 -2.640625 L 2 -2.640625 L 0.984375 0 L 0 0 L 3.28125 -8.34375 L 4.09375 -8.34375 L 7.359375 0 Z M 5.03125 -3.515625 L 4.0625 -6.09375 C 3.9375 -6.414062 3.804688 -6.8125 3.671875 -7.28125 C 3.585938 -6.914062 3.46875 -6.519531 3.3125 -6.09375 L 2.34375 -3.515625 Z M 4.484375 -9.0625 C 4.316406 -9.0625 4.15625 -9.097656 4 -9.171875 C 3.84375 -9.242188 3.6875 -9.320312 3.53125 -9.40625 C 3.382812 -9.488281 3.242188 -9.5625 3.109375 -9.625 C 2.972656 -9.695312 2.84375 -9.734375 2.71875 -9.734375 C 2.519531 -9.734375 2.375 -9.675781 2.28125 -9.5625 C 2.1875 -9.457031 2.113281 -9.285156 2.0625 -9.046875 L 1.5 -9.046875 C 1.550781 -9.503906 1.6875 -9.863281 1.90625 -10.125 C 2.125 -10.382812 2.40625 -10.515625 2.75 -10.515625 C 2.914062 -10.515625 3.082031 -10.476562 3.25 -10.40625 C 3.414062 -10.34375 3.570312 -10.265625 3.71875 -10.171875 C 3.863281 -10.085938 4.003906 -10.007812 4.140625 -9.9375 C 4.273438 -9.875 4.40625 -9.84375 4.53125 -9.84375 C 4.71875 -9.84375 4.851562 -9.894531 4.9375 -10 C 5.03125 -10.113281 5.109375 -10.289062 5.171875 -10.53125 L 5.734375 -10.53125 C 5.679688 -10.070312 5.546875 -9.710938 5.328125 -9.453125 C 5.117188 -9.191406 4.835938 -9.0625 4.484375 -9.0625 Z M 4.484375 -9.0625 "/></g></g></g><g fill="#042a5d" fill-opacity="1"><g transform="translate(109.527421, 130.415466)"><g><path d="M 8.359375 -4.171875 C 8.359375 -2.835938 8.019531 -1.789062 7.34375 -1.03125 C 6.675781 -0.269531 5.742188 0.109375 4.546875 0.109375 C 3.316406 0.109375 2.367188 -0.257812 1.703125 -1 C 1.035156 -1.75 0.703125 -2.804688 0.703125 -4.171875 C 0.703125 -5.523438 1.035156 -6.570312 1.703125 -7.3125 C 2.378906 -8.0625 3.328125 -8.4375 4.546875 -8.4375 C 5.742188 -8.4375 6.675781 -8.054688 7.34375 -7.296875 C 8.019531 -6.546875 8.359375 -5.503906 8.359375 -4.171875 Z M 1.734375 -4.171875 C 1.734375 -3.046875 1.972656 -2.191406 2.453125 -1.609375 C 2.929688 -1.023438 3.628906 -0.734375 4.546875 -0.734375 C 5.460938 -0.734375 6.15625 -1.019531 6.625 -1.59375 C 7.09375 -2.175781 7.328125 -3.035156 7.328125 -4.171875 C 7.328125 -5.285156 7.09375 -6.128906 6.625 -6.703125 C 6.15625 -7.285156 5.460938 -7.578125 4.546875 -7.578125 C 3.628906 -7.578125 2.929688 -7.285156 2.453125 -6.703125 C 1.972656 -6.117188 1.734375 -5.273438 1.734375 -4.171875 Z M 1.734375 -4.171875 "/></g></g></g><g fill="#042a5d" fill-opacity="1"><g transform="translate(121.74143, 130.415466)"><g/></g></g><g fill="#042a5d" fill-opacity="1"><g transform="translate(127.916626, 130.415466)"><g><path d="M 7.78125 -4.234375 C 7.78125 -2.859375 7.40625 -1.804688 6.65625 -1.078125 C 5.914062 -0.359375 4.84375 0 3.4375 0 L 1.140625 0 L 1.140625 -8.3125 L 3.6875 -8.3125 C 4.976562 -8.3125 5.984375 -7.953125 6.703125 -7.234375 C 7.421875 -6.515625 7.78125 -5.515625 7.78125 -4.234375 Z M 6.75 -4.203125 C 6.75 -5.285156 6.476562 -6.097656 5.9375 -6.640625 C 5.394531 -7.191406 4.585938 -7.46875 3.515625 -7.46875 L 2.109375 -7.46875 L 2.109375 -0.828125 L 3.28125 -0.828125 C 4.4375 -0.828125 5.300781 -1.109375 5.875 -1.671875 C 6.457031 -2.242188 6.75 -3.085938 6.75 -4.203125 Z M 6.75 -4.203125 "/></g></g></g><g fill="#042a5d" fill-opacity="1"><g transform="translate(139.551179, 130.415466)"><g><path d="M 5.78125 0 L 1.140625 0 L 1.140625 -8.3125 L 5.78125 -8.3125 L 5.78125 -7.453125 L 2.109375 -7.453125 L 2.109375 -4.78125 L 5.546875 -4.78125 L 5.546875 -3.921875 L 2.109375 -3.921875 L 2.109375 -0.859375 L 5.78125 -0.859375 Z M 5.78125 0 "/></g></g></g><g fill="#042a5d" fill-opacity="1"><g transform="translate(149.174689, 130.415466)"><g/></g></g><g fill="#042a5d" fill-opacity="1"><g transform="translate(155.349885, 130.415466)"><g><path d="M 4.703125 -7.5625 C 3.785156 -7.5625 3.0625 -7.253906 2.53125 -6.640625 C 2.007812 -6.035156 1.75 -5.207031 1.75 -4.15625 C 1.75 -3.070312 2.003906 -2.234375 2.515625 -1.640625 C 3.023438 -1.046875 3.75 -0.75 4.6875 -0.75 C 5.269531 -0.75 5.929688 -0.851562 6.671875 -1.0625 L 6.671875 -0.203125 C 6.097656 0.00390625 5.390625 0.109375 4.546875 0.109375 C 3.316406 0.109375 2.367188 -0.257812 1.703125 -1 C 1.035156 -1.738281 0.703125 -2.796875 0.703125 -4.171875 C 0.703125 -5.023438 0.863281 -5.773438 1.1875 -6.421875 C 1.507812 -7.066406 1.972656 -7.5625 2.578125 -7.90625 C 3.179688 -8.25 3.894531 -8.421875 4.71875 -8.421875 C 5.582031 -8.421875 6.34375 -8.265625 7 -7.953125 L 6.59375 -7.125 C 5.957031 -7.414062 5.328125 -7.5625 4.703125 -7.5625 Z M 4.703125 -7.5625 "/></g></g></g><g fill="#042a5d" fill-opacity="1"><g transform="translate(165.842574, 130.415466)"><g><path d="M 8.359375 -4.171875 C 8.359375 -2.835938 8.019531 -1.789062 7.34375 -1.03125 C 6.675781 -0.269531 5.742188 0.109375 4.546875 0.109375 C 3.316406 0.109375 2.367188 -0.257812 1.703125 -1 C 1.035156 -1.75 0.703125 -2.804688 0.703125 -4.171875 C 0.703125 -5.523438 1.035156 -6.570312 1.703125 -7.3125 C 2.378906 -8.0625 3.328125 -8.4375 4.546875 -8.4375 C 5.742188 -8.4375 6.675781 -8.054688 7.34375 -7.296875 C 8.019531 -6.546875 8.359375 -5.503906 8.359375 -4.171875 Z M 1.734375 -4.171875 C 1.734375 -3.046875 1.972656 -2.191406 2.453125 -1.609375 C 2.929688 -1.023438 3.628906 -0.734375 4.546875 -0.734375 C 5.460938 -0.734375 6.15625 -1.019531 6.625 -1.59375 C 7.09375 -2.175781 7.328125 -3.035156 7.328125 -4.171875 C 7.328125 -5.285156 7.09375 -6.128906 6.625 -6.703125 C 6.15625 -7.285156 5.460938 -7.578125 4.546875 -7.578125 C 3.628906 -7.578125 2.929688 -7.285156 2.453125 -6.703125 C 1.972656 -6.117188 1.734375 -5.273438 1.734375 -4.171875 Z M 1.734375 -4.171875 "/></g></g></g><g fill="#042a5d" fill-opacity="1"><g transform="translate(178.05658, 130.415466)"><g><path d="M 4.8125 0 L 2 -7.359375 L 1.953125 -7.359375 C 2.003906 -6.773438 2.03125 -6.082031 2.03125 -5.28125 L 2.03125 0 L 1.140625 0 L 1.140625 -8.3125 L 2.59375 -8.3125 L 5.234375 -1.453125 L 5.28125 -1.453125 L 7.921875 -8.3125 L 9.375 -8.3125 L 9.375 0 L 8.40625 0 L 8.40625 -5.359375 C 8.40625 -5.972656 8.429688 -6.640625 8.484375 -7.359375 L 8.4375 -7.359375 L 5.59375 0 Z M 4.8125 0 "/></g></g></g><g fill="#042a5d" fill-opacity="1"><g transform="translate(191.713545, 130.415466)"><g><path d="M 6.40625 -5.890625 C 6.40625 -5.046875 6.117188 -4.394531 5.546875 -3.9375 C 4.972656 -3.488281 4.15625 -3.265625 3.09375 -3.265625 L 2.109375 -3.265625 L 2.109375 0 L 1.140625 0 L 1.140625 -8.3125 L 3.296875 -8.3125 C 5.367188 -8.3125 6.40625 -7.503906 6.40625 -5.890625 Z M 2.109375 -4.09375 L 2.984375 -4.09375 C 3.835938 -4.09375 4.453125 -4.226562 4.828125 -4.5 C 5.210938 -4.78125 5.40625 -5.226562 5.40625 -5.84375 C 5.40625 -6.394531 5.222656 -6.800781 4.859375 -7.0625 C 4.503906 -7.332031 3.945312 -7.46875 3.1875 -7.46875 L 2.109375 -7.46875 Z M 2.109375 -4.09375 "/></g></g></g><g fill="#042a5d" fill-opacity="1"><g transform="translate(201.87106, 130.415466)"><g><path d="M 2.109375 -3.453125 L 2.109375 0 L 1.140625 0 L 1.140625 -8.3125 L 3.421875 -8.3125 C 4.441406 -8.3125 5.191406 -8.113281 5.671875 -7.71875 C 6.160156 -7.332031 6.40625 -6.75 6.40625 -5.96875 C 6.40625 -4.863281 5.847656 -4.117188 4.734375 -3.734375 L 7 0 L 5.859375 0 L 3.84375 -3.453125 Z M 2.109375 -4.28125 L 3.4375 -4.28125 C 4.113281 -4.28125 4.609375 -4.414062 4.921875 -4.6875 C 5.242188 -4.957031 5.40625 -5.363281 5.40625 -5.90625 C 5.40625 -6.457031 5.242188 -6.851562 4.921875 -7.09375 C 4.597656 -7.34375 4.078125 -7.46875 3.359375 -7.46875 L 2.109375 -7.46875 Z M 2.109375 -4.28125 "/></g></g></g><g fill="#042a5d" fill-opacity="1"><g transform="translate(212.216046, 130.415466)"><g><path d="M 6.359375 0 L 5.328125 -2.640625 L 2 -2.640625 L 0.984375 0 L 0 0 L 3.28125 -8.34375 L 4.09375 -8.34375 L 7.359375 0 Z M 5.03125 -3.515625 L 4.0625 -6.09375 C 3.9375 -6.414062 3.804688 -6.8125 3.671875 -7.28125 C 3.585938 -6.914062 3.46875 -6.519531 3.3125 -6.09375 L 2.34375 -3.515625 Z M 5.03125 -3.515625 "/></g></g></g><g fill="#042a5d" fill-opacity="1"><g transform="translate(222.731459, 130.415466)"><g/></g></g><g fill="#042a5d" fill-opacity="1"><g transform="translate(228.906655, 130.415466)"><g><path d="M 5.78125 0 L 1.140625 0 L 1.140625 -8.3125 L 5.78125 -8.3125 L 5.78125 -7.453125 L 2.109375 -7.453125 L 2.109375 -4.78125 L 5.546875 -4.78125 L 5.546875 -3.921875 L 2.109375 -3.921875 L 2.109375 -0.859375 L 5.78125 -0.859375 Z M 5.78125 0 "/></g></g></g><g fill="#042a5d" fill-opacity="1"><g transform="translate(238.530165, 130.415466)"><g/></g></g><g fill="#042a5d" fill-opacity="1"><g transform="translate(244.705361, 130.415466)"><g><path d="M 5.78125 0 L 1.140625 0 L 1.140625 -8.3125 L 5.78125 -8.3125 L 5.78125 -7.453125 L 2.109375 -7.453125 L 2.109375 -4.78125 L 5.546875 -4.78125 L 5.546875 -3.921875 L 2.109375 -3.921875 L 2.109375 -0.859375 L 5.78125 -0.859375 Z M 5.78125 0 "/></g></g></g><g fill="#042a5d" fill-opacity="1"><g transform="translate(254.32887, 130.415466)"><g><path d="M 5.828125 -2.21875 C 5.828125 -1.476562 5.5625 -0.90625 5.03125 -0.5 C 4.5 -0.09375 3.78125 0.109375 2.875 0.109375 C 1.882812 0.109375 1.128906 -0.015625 0.609375 -0.265625 L 0.609375 -1.203125 C 0.941406 -1.054688 1.304688 -0.941406 1.703125 -0.859375 C 2.109375 -0.773438 2.507812 -0.734375 2.90625 -0.734375 C 3.550781 -0.734375 4.035156 -0.851562 4.359375 -1.09375 C 4.691406 -1.34375 4.859375 -1.6875 4.859375 -2.125 C 4.859375 -2.40625 4.796875 -2.640625 4.671875 -2.828125 C 4.554688 -3.015625 4.363281 -3.179688 4.09375 -3.328125 C 3.820312 -3.484375 3.410156 -3.660156 2.859375 -3.859375 C 2.085938 -4.140625 1.535156 -4.46875 1.203125 -4.84375 C 0.867188 -5.226562 0.703125 -5.722656 0.703125 -6.328125 C 0.703125 -6.972656 0.941406 -7.484375 1.421875 -7.859375 C 1.910156 -8.234375 2.550781 -8.421875 3.34375 -8.421875 C 4.164062 -8.421875 4.925781 -8.269531 5.625 -7.96875 L 5.3125 -7.140625 C 4.632812 -7.421875 3.96875 -7.5625 3.3125 -7.5625 C 2.800781 -7.5625 2.398438 -7.453125 2.109375 -7.234375 C 1.828125 -7.015625 1.6875 -6.710938 1.6875 -6.328125 C 1.6875 -6.035156 1.738281 -5.796875 1.84375 -5.609375 C 1.945312 -5.429688 2.125 -5.265625 2.375 -5.109375 C 2.632812 -4.953125 3.023438 -4.78125 3.546875 -4.59375 C 4.410156 -4.28125 5.003906 -3.945312 5.328125 -3.59375 C 5.660156 -3.238281 5.828125 -2.78125 5.828125 -2.21875 Z M 5.828125 -2.21875 "/></g></g></g><g fill="#042a5d" fill-opacity="1"><g transform="translate(263.867166, 130.415466)"><g><path d="M 3.703125 0 L 2.734375 0 L 2.734375 -7.453125 L 0.109375 -7.453125 L 0.109375 -8.3125 L 6.328125 -8.3125 L 6.328125 -7.453125 L 3.703125 -7.453125 Z M 3.703125 0 "/></g></g></g><g fill="#042a5d" fill-opacity="1"><g transform="translate(273.456591, 130.415466)"><g><path d="M 8.359375 -4.171875 C 8.359375 -2.835938 8.019531 -1.789062 7.34375 -1.03125 C 6.675781 -0.269531 5.742188 0.109375 4.546875 0.109375 C 3.316406 0.109375 2.367188 -0.257812 1.703125 -1 C 1.035156 -1.75 0.703125 -2.804688 0.703125 -4.171875 C 0.703125 -5.523438 1.035156 -6.570312 1.703125 -7.3125 C 2.378906 -8.0625 3.328125 -8.4375 4.546875 -8.4375 C 5.742188 -8.4375 6.675781 -8.054688 7.34375 -7.296875 C 8.019531 -6.546875 8.359375 -5.503906 8.359375 -4.171875 Z M 1.734375 -4.171875 C 1.734375 -3.046875 1.972656 -2.191406 2.453125 -1.609375 C 2.929688 -1.023438 3.628906 -0.734375 4.546875 -0.734375 C 5.460938 -0.734375 6.15625 -1.019531 6.625 -1.59375 C 7.09375 -2.175781 7.328125 -3.035156 7.328125 -4.171875 C 7.328125 -5.285156 7.09375 -6.128906 6.625 -6.703125 C 6.15625 -7.285156 5.460938 -7.578125 4.546875 -7.578125 C 3.628906 -7.578125 2.929688 -7.285156 2.453125 -6.703125 C 1.972656 -6.117188 1.734375 -5.273438 1.734375 -4.171875 Z M 1.734375 -4.171875 "/></g></g></g><g fill="#042a5d" fill-opacity="1"><g transform="translate(285.670596, 130.415466)"><g><path d="M 8.359375 -4.171875 C 8.359375 -3.097656 8.144531 -2.207031 7.71875 -1.5 C 7.289062 -0.800781 6.6875 -0.328125 5.90625 -0.078125 L 7.875 1.984375 L 6.46875 1.984375 L 4.859375 0.109375 L 4.546875 0.109375 C 3.316406 0.109375 2.367188 -0.257812 1.703125 -1 C 1.035156 -1.75 0.703125 -2.804688 0.703125 -4.171875 C 0.703125 -5.523438 1.035156 -6.570312 1.703125 -7.3125 C 2.378906 -8.0625 3.328125 -8.4375 4.546875 -8.4375 C 5.742188 -8.4375 6.675781 -8.054688 7.34375 -7.296875 C 8.019531 -6.546875 8.359375 -5.503906 8.359375 -4.171875 Z M 1.734375 -4.171875 C 1.734375 -3.046875 1.972656 -2.191406 2.453125 -1.609375 C 2.929688 -1.023438 3.628906 -0.734375 4.546875 -0.734375 C 5.460938 -0.734375 6.15625 -1.019531 6.625 -1.59375 C 7.09375 -2.175781 7.328125 -3.035156 7.328125 -4.171875 C 7.328125 -5.285156 7.09375 -6.128906 6.625 -6.703125 C 6.15625 -7.285156 5.460938 -7.578125 4.546875 -7.578125 C 3.628906 -7.578125 2.929688 -7.285156 2.453125 -6.703125 C 1.972656 -6.117188 1.734375 -5.273438 1.734375 -4.171875 Z M 1.734375 -4.171875 "/></g></g></g><g fill="#042a5d" fill-opacity="1"><g transform="translate(297.884602, 130.415466)"><g><path d="M 7.421875 -8.3125 L 7.421875 -2.9375 C 7.421875 -1.988281 7.132812 -1.242188 6.5625 -0.703125 C 5.988281 -0.160156 5.203125 0.109375 4.203125 0.109375 C 3.203125 0.109375 2.425781 -0.160156 1.875 -0.703125 C 1.332031 -1.242188 1.0625 -1.992188 1.0625 -2.953125 L 1.0625 -8.3125 L 2.03125 -8.3125 L 2.03125 -2.890625 C 2.03125 -2.191406 2.21875 -1.65625 2.59375 -1.28125 C 2.96875 -0.914062 3.523438 -0.734375 4.265625 -0.734375 C 4.960938 -0.734375 5.5 -0.921875 5.875 -1.296875 C 6.257812 -1.671875 6.453125 -2.207031 6.453125 -2.90625 L 6.453125 -8.3125 Z M 7.421875 -8.3125 "/></g></g></g><g fill="#042a5d" fill-opacity="1"><g transform="translate(309.507793, 130.415466)"><g><path d="M 5.78125 0 L 1.140625 0 L 1.140625 -8.3125 L 5.78125 -8.3125 L 5.78125 -7.453125 L 2.109375 -7.453125 L 2.109375 -4.78125 L 5.546875 -4.78125 L 5.546875 -3.921875 L 2.109375 -3.921875 L 2.109375 -0.859375 L 5.78125 -0.859375 Z M 5.78125 0 "/></g></g></g><g fill="#fda83f" fill-opacity="1"><g transform="translate(127.569503, 208.59358)"><g><path d="M 44.515625 -7.84375 L 44.515625 0 L 6.765625 0 L 6.765625 -50.328125 L 43.5 -50.328125 L 43.5 -42.5 L 16.109375 -42.5 L 16.109375 -29.40625 L 40.40625 -29.40625 L 40.40625 -21.71875 L 16.109375 -21.71875 L 16.109375 -7.84375 Z M 44.515625 -7.84375 "/></g></g></g><g fill="#fda83f" fill-opacity="1"><g transform="translate(176.678688, 208.59358)"><g><path d="M 6.765625 -50.328125 L 16.109375 -50.328125 L 16.109375 -7.90625 L 42.421875 -7.90625 L 42.421875 0 L 6.765625 0 Z M 6.765625 -50.328125 "/></g></g></g><g fill="#fda83f" fill-opacity="1"><g transform="translate(220.682837, 208.59358)"><g><path d="M 6.765625 -50.328125 L 16.109375 -50.328125 L 16.109375 -7.90625 L 42.421875 -7.90625 L 42.421875 0 L 6.765625 0 Z M 6.765625 -50.328125 "/></g></g></g><g fill="#fda83f" fill-opacity="1"><g transform="translate(264.686989, 208.59358)"><g><path d="M 30.265625 0.71875 C 25.140625 0.71875 20.515625 -0.394531 16.390625 -2.625 C 12.265625 -4.851562 9.023438 -7.941406 6.671875 -11.890625 C 4.328125 -15.847656 3.15625 -20.273438 3.15625 -25.171875 C 3.15625 -30.054688 4.328125 -34.472656 6.671875 -38.421875 C 9.023438 -42.378906 12.265625 -45.472656 16.390625 -47.703125 C 20.515625 -49.929688 25.140625 -51.046875 30.265625 -51.046875 C 35.398438 -51.046875 40.023438 -49.929688 44.140625 -47.703125 C 48.265625 -45.472656 51.5 -42.394531 53.84375 -38.46875 C 56.195312 -34.539062 57.375 -30.109375 57.375 -25.171875 C 57.375 -20.234375 56.195312 -15.796875 53.84375 -11.859375 C 51.5 -7.929688 48.265625 -4.851562 44.140625 -2.625 C 40.023438 -0.394531 35.398438 0.71875 30.265625 0.71875 Z M 30.265625 -7.484375 C 33.628906 -7.484375 36.648438 -8.238281 39.328125 -9.75 C 42.015625 -11.257812 44.125 -13.367188 45.65625 -16.078125 C 47.195312 -18.785156 47.96875 -21.816406 47.96875 -25.171875 C 47.96875 -28.523438 47.195312 -31.554688 45.65625 -34.265625 C 44.125 -36.972656 42.015625 -39.082031 39.328125 -40.59375 C 36.648438 -42.101562 33.628906 -42.859375 30.265625 -42.859375 C 26.910156 -42.859375 23.890625 -42.101562 21.203125 -40.59375 C 18.523438 -39.082031 16.414062 -36.972656 14.875 -34.265625 C 13.34375 -31.554688 12.578125 -28.523438 12.578125 -25.171875 C 12.578125 -21.816406 13.34375 -18.785156 14.875 -16.078125 C 16.414062 -13.367188 18.523438 -11.257812 21.203125 -9.75 C 23.890625 -8.238281 26.910156 -7.484375 30.265625 -7.484375 Z M 30.265625 -7.484375 "/></g></g></g><g fill="#fda83f" fill-opacity="1"><g transform="translate(326.150967, 208.59358)"><g/></g></g><g clip-path="url(#id5)"><path fill="#fda83f" d="M 115.679688 158.164062 L 126.929688 158.164062 L 126.929688 209.128906 L 115.679688 209.128906 L 115.679688 158.164062 " fill-opacity="1" fill-rule="nonzero"/></g><g fill="#042a5d" fill-opacity="1"><g transform="translate(167.127007, 245.498222)"><g><path d="M 13.5625 0.4375 C 11.207031 0.4375 8.929688 0.101562 6.734375 -0.5625 C 4.546875 -1.238281 2.8125 -2.128906 1.53125 -3.234375 L 3.484375 -7.640625 C 4.734375 -6.648438 6.265625 -5.84375 8.078125 -5.21875 C 9.898438 -4.59375 11.726562 -4.28125 13.5625 -4.28125 C 15.832031 -4.28125 17.523438 -4.640625 18.640625 -5.359375 C 19.765625 -6.085938 20.328125 -7.050781 20.328125 -8.25 C 20.328125 -9.113281 20.015625 -9.828125 19.390625 -10.390625 C 18.765625 -10.960938 17.972656 -11.410156 17.015625 -11.734375 C 16.054688 -12.054688 14.75 -12.421875 13.09375 -12.828125 C 10.757812 -13.378906 8.875 -13.929688 7.4375 -14.484375 C 6 -15.035156 4.765625 -15.898438 3.734375 -17.078125 C 2.703125 -18.253906 2.1875 -19.847656 2.1875 -21.859375 C 2.1875 -23.546875 2.640625 -25.078125 3.546875 -26.453125 C 4.460938 -27.835938 5.84375 -28.9375 7.6875 -29.75 C 9.539062 -30.5625 11.804688 -30.96875 14.484375 -30.96875 C 16.347656 -30.96875 18.179688 -30.734375 19.984375 -30.265625 C 21.785156 -29.804688 23.335938 -29.140625 24.640625 -28.265625 L 22.859375 -23.859375 C 21.523438 -24.648438 20.128906 -25.25 18.671875 -25.65625 C 17.210938 -26.0625 15.800781 -26.265625 14.4375 -26.265625 C 12.195312 -26.265625 10.53125 -25.882812 9.4375 -25.125 C 8.351562 -24.375 7.8125 -23.375 7.8125 -22.125 C 7.8125 -21.25 8.125 -20.535156 8.75 -19.984375 C 9.375 -19.429688 10.164062 -18.992188 11.125 -18.671875 C 12.082031 -18.347656 13.390625 -17.984375 15.046875 -17.578125 C 17.316406 -17.054688 19.175781 -16.507812 20.625 -15.9375 C 22.082031 -15.375 23.328125 -14.507812 24.359375 -13.34375 C 25.390625 -12.1875 25.90625 -10.617188 25.90625 -8.640625 C 25.90625 -6.953125 25.445312 -5.421875 24.53125 -4.046875 C 23.625 -2.679688 22.238281 -1.59375 20.375 -0.78125 C 18.507812 0.03125 16.238281 0.4375 13.5625 0.4375 Z M 13.5625 0.4375 "/></g></g></g><g fill="#042a5d" fill-opacity="1"><g transform="translate(193.68838, 245.498222)"><g><path d="M 10.296875 -25.734375 L 0.171875 -25.734375 L 0.171875 -30.53125 L 26.09375 -30.53125 L 26.09375 -25.734375 L 15.96875 -25.734375 L 15.96875 0 L 10.296875 0 Z M 10.296875 -25.734375 "/></g></g></g><g fill="#042a5d" fill-opacity="1"><g transform="translate(219.072128, 245.498222)"><g><path d="M 18.359375 0.4375 C 15.253906 0.4375 12.445312 -0.238281 9.9375 -1.59375 C 7.4375 -2.945312 5.472656 -4.820312 4.046875 -7.21875 C 2.628906 -9.613281 1.921875 -12.296875 1.921875 -15.265625 C 1.921875 -18.234375 2.628906 -20.914062 4.046875 -23.3125 C 5.472656 -25.71875 7.4375 -27.59375 9.9375 -28.9375 C 12.445312 -30.289062 15.253906 -30.96875 18.359375 -30.96875 C 21.472656 -30.96875 24.28125 -30.289062 26.78125 -28.9375 C 29.28125 -27.59375 31.242188 -25.726562 32.671875 -23.34375 C 34.097656 -20.957031 34.8125 -18.265625 34.8125 -15.265625 C 34.8125 -12.273438 34.097656 -9.585938 32.671875 -7.203125 C 31.242188 -4.816406 29.28125 -2.945312 26.78125 -1.59375 C 24.28125 -0.238281 21.472656 0.4375 18.359375 0.4375 Z M 18.359375 -4.53125 C 20.398438 -4.53125 22.234375 -4.988281 23.859375 -5.90625 C 25.492188 -6.820312 26.773438 -8.101562 27.703125 -9.75 C 28.628906 -11.394531 29.09375 -13.234375 29.09375 -15.265625 C 29.09375 -17.304688 28.628906 -19.144531 27.703125 -20.78125 C 26.773438 -22.425781 25.492188 -23.707031 23.859375 -24.625 C 22.234375 -25.539062 20.398438 -26 18.359375 -26 C 16.328125 -26 14.492188 -25.539062 12.859375 -24.625 C 11.234375 -23.707031 9.957031 -22.425781 9.03125 -20.78125 C 8.101562 -19.144531 7.640625 -17.304688 7.640625 -15.265625 C 7.640625 -13.234375 8.101562 -11.394531 9.03125 -9.75 C 9.957031 -8.101562 11.234375 -6.820312 12.859375 -5.90625 C 14.492188 -4.988281 16.328125 -4.53125 18.359375 -4.53125 Z M 18.359375 -4.53125 "/></g></g></g><g fill="#042a5d" fill-opacity="1"><g transform="translate(254.923598, 245.498222)"><g><path d="M 18.234375 0.4375 C 15.148438 0.4375 12.363281 -0.238281 9.875 -1.59375 C 7.394531 -2.945312 5.445312 -4.816406 4.03125 -7.203125 C 2.625 -9.585938 1.921875 -12.273438 1.921875 -15.265625 C 1.921875 -18.265625 2.628906 -20.957031 4.046875 -23.34375 C 5.472656 -25.726562 7.429688 -27.59375 9.921875 -28.9375 C 12.410156 -30.289062 15.195312 -30.96875 18.28125 -30.96875 C 20.78125 -30.96875 23.0625 -30.53125 25.125 -29.65625 C 27.1875 -28.789062 28.929688 -27.53125 30.359375 -25.875 L 26.703125 -22.421875 C 24.492188 -24.804688 21.773438 -26 18.546875 -26 C 16.453125 -26 14.570312 -25.539062 12.90625 -24.625 C 11.25 -23.707031 9.957031 -22.429688 9.03125 -20.796875 C 8.101562 -19.171875 7.640625 -17.328125 7.640625 -15.265625 C 7.640625 -13.203125 8.101562 -11.351562 9.03125 -9.71875 C 9.957031 -8.09375 11.25 -6.820312 12.90625 -5.90625 C 14.570312 -4.988281 16.453125 -4.53125 18.546875 -4.53125 C 21.773438 -4.53125 24.492188 -5.738281 26.703125 -8.15625 L 30.359375 -4.671875 C 28.929688 -3.015625 27.175781 -1.75 25.09375 -0.875 C 23.019531 0 20.734375 0.4375 18.234375 0.4375 Z M 18.234375 0.4375 "/></g></g></g><g fill="#042a5d" fill-opacity="1"><g transform="translate(285.759279, 245.498222)"><g><path d="M 14.609375 -12.78125 L 9.765625 -7.8125 L 9.765625 0 L 4.09375 0 L 4.09375 -30.53125 L 9.765625 -30.53125 L 9.765625 -14.875 L 24.859375 -30.53125 L 31.234375 -30.53125 L 18.40625 -16.890625 L 32.015625 0 L 25.390625 0 Z M 14.609375 -12.78125 "/></g></g></g><g clip-path="url(#id6)"><path fill="#fda83f" d="M 124.238281 179.292969 L 124.238281 186.792969 L 106.996094 186.792969 L 106.996094 179.292969 L 124.238281 179.292969 " fill-opacity="1" fill-rule="nonzero"/></g><path stroke-linecap="round" transform="matrix(2.244268, 0, 0, 2.25, 51.542708, 208.107042)" fill="none" stroke-linejoin="miter" d="M 0.499653 -0.000699015 L 34.255791 -0.000699015 " stroke="#042a5d" stroke-width="1" stroke-opacity="1" stroke-miterlimit="4"/></svg>